<svg xmlns="http://www.w3.org/2000/svg" viewBox="0 0 27.68 47.57"><defs><style>.cls-1{fill:#cc2f32;}</style></defs><title>erythrocyte</title><g id="Слой_2" data-name="Слой 2"><g id="Layer_3" data-name="Layer 3"><path class="cls-1" d="M13.84,47.57A13.88,13.88,0,0,1,0,33.68a14.45,14.45,0,0,1,.86-5v-.11L13.84,0l13,28.67a14.2,14.2,0,0,1,.84,5A13.88,13.88,0,0,1,13.84,47.57ZM4.09,29.93a11.09,11.09,0,0,0-.62,3.75,10.37,10.37,0,0,0,20.74,0,10.76,10.76,0,0,0-.6-3.73L13.84,8.4Z"/><circle class="cls-1" cx="13.86" cy="32.47" r="6.07"/></g></g></svg>