<svg id="Layer_1" data-name="Layer 1" xmlns="http://www.w3.org/2000/svg" viewBox="0 0 15.5 15.49"><title>карандаш</title><path d="M15,1.65a3.42,3.42,0,0,0-4.84,0L1.32,10.52a0.44,0.44,0,0,0-.13.25L0.54,15.64A0.44,0.44,0,0,0,.66,16a0.45,0.45,0,0,0,.31.13H1L4,15.74a0.45,0.45,0,1,0-.12-0.88l-2.35.32L2,11.78l3.57,3.57a0.45,0.45,0,0,0,.31.13,0.44,0.44,0,0,0,.31-0.13L15,6.49a3.42,3.42,0,0,0,0-4.84h0ZM10.36,2.74l1.49,1.49L3.76,12.32,2.27,10.83ZM5.85,14.41L4.39,13l8.09-8.09,1.46,1.46Zm8.71-8.73L11,2.12a2.53,2.53,0,0,1,3.56,3.56h0Zm0,0" transform="translate(-0.53 -0.65)"/></svg>