<svg xmlns="http://www.w3.org/2000/svg" viewBox="0 0 39.78 37.12"><defs><style>.cls-1{fill:#cb2f32;}</style></defs><title>sport</title><g id="Слой_2" data-name="Слой 2"><g id="Layer_3" data-name="Layer 3"><path class="cls-1" d="M38.52,6.55H37.46V3a.65.65,0,0,0-.66-.66H35a.66.66,0,0,0-.67.66V6.55H32a1.84,1.84,0,0,0-3.67-.37l0,.37H25.11a5.75,5.75,0,0,1-10.45,0H11.48l0-.37a1.84,1.84,0,0,0-3.67.37H5.45V3a.66.66,0,0,0-.66-.66H3A.66.66,0,0,0,2.31,3V6.55h-1a1.26,1.26,0,1,0,0,2.51H2.31V12.6a.67.67,0,0,0,.67.67H4.79a.67.67,0,0,0,.66-.67V9.06H8c.08.75.64,6.06.72,6.85a1.84,1.84,0,0,0,3.22,1l2.59-3V21l-6.7,2.72A2.41,2.41,0,0,0,6.4,25.6L5.07,34.37a2.39,2.39,0,1,0,4.73.72l1.14-7.42,6.2-2.52h5.5l6.2,2.52L30,35.09a2.39,2.39,0,1,0,4.73-.72L33.38,25.6a2.41,2.41,0,0,0-1.47-1.86L25.15,21V13.9l2.65,3a1.84,1.84,0,0,0,3.22-1c.08-.79.64-6.1.72-6.85h2.58V12.6a.67.67,0,0,0,.67.67H36.8a.66.66,0,0,0,.66-.67V9.06h1.06a1.26,1.26,0,1,0,0-2.51ZM12,11.32c-.09-.94-.14-1.33-.24-2.26H14l-2,2.26Zm15.82,0c-.92-1,.26.3-2-2.26H28c-.19,1.76-.14,1.33-.24,2.26Z"/><path class="cls-1" d="M24,4.14A4.14,4.14,0,1,1,19.89,0,4.13,4.13,0,0,1,24,4.14Z"/></g></g></svg>