<svg xmlns="http://www.w3.org/2000/svg" viewBox="0 0 17.22 42.8"><defs><style>.cls-1{fill:#3d70c1;}</style></defs><title>bottle</title><g id="Слой_2" data-name="Слой 2"><g id="Layer_3" data-name="Layer 3"><g id="_Группа_" data-name="&lt;Группа&gt;"><polygon class="cls-1" points="10.44 3.56 16.53 11.48 0.73 11.48 6.82 3.56 10.44 3.56"/><path class="cls-1" d="M17.17,34.17v5.69A2.18,2.18,0,0,1,15,42.09h-2.5a4.19,4.19,0,0,0,.32-1.52H11.52A2.22,2.22,0,0,1,9.34,42.8H7.92a2.22,2.22,0,0,1-2.18-2.23H4.4a4,4,0,0,0,.33,1.52H2.22A2.26,2.26,0,0,1,0,39.86V34.17A2.19,2.19,0,0,1,2.22,32H9.34V30.7H1.87a1.83,1.83,0,1,1,0-3.65H9.34V25.71H1.87a1.82,1.82,0,1,1,0-3.64H9.34V20.73H2.22A2.25,2.25,0,0,1,0,18.51v-5.7H17.17v5.7A2.18,2.18,0,0,1,15,20.73H13.61v1.34h1.78a1.82,1.82,0,1,1,0,3.64H13.61v1.34h1.78a1.83,1.83,0,1,1,0,3.65H13.61V32H15A2.11,2.11,0,0,1,17.17,34.17Z"/><rect class="cls-1" x="4.98" width="7.21" height="2.22"/></g></g></g></svg>