<svg xmlns="http://www.w3.org/2000/svg" viewBox="0 0 87.21 81.39"><defs><style>.cls-1{fill:none;stroke:#cb2f32;stroke-miterlimit:10;stroke-width:2px;}.cls-2{fill:#cb2f32;}</style></defs><title>full-heart</title><g id="Слой_2" data-name="Слой 2"><g id="Layer_3" data-name="Layer 3"><path class="cls-1" d="M2,17.31C5,3.11,19.22-1.06,31.84,2.39,36.16,3.58,40,6.54,44.31,8.83A23.75,23.75,0,0,1,68.65,1.92c17,4.56,19.92,18.3,16,32.62-1.91,7-6.64,12.79-11.86,17.86C63.19,61.75,53.41,70.93,43.86,80,37.31,74.14,30.76,68.5,24.5,62.57,15,53.59,3.18,45.06,1.26,31.66A48.25,48.25,0,0,1,2,17.31Z"/><path class="cls-2" d="M2,17.31C5,3.11,19.22-1.06,31.84,2.39,36.16,3.58,40,6.54,44.31,8.83A23.75,23.75,0,0,1,68.65,1.92c17,4.56,19.92,18.3,16,32.62-1.91,7-6.64,12.79-11.86,17.86C63.19,61.75,53.41,70.93,43.86,80,37.31,74.14,30.76,68.5,24.5,62.57,15,53.59,3.18,45.06,1.26,31.66A48.25,48.25,0,0,1,2,17.31Z"/></g></g></svg>