<svg xmlns="http://www.w3.org/2000/svg" viewBox="0 0 32.93 32.93"><defs><style>.cls-1{fill:#cf3a42;}</style></defs><title>patch</title><g id="Слой_2" data-name="Слой 2"><g id="Layer_3" data-name="Layer 3"><path class="cls-1" d="M2,31a6.75,6.75,0,0,0,9.55,0l3.59-3.57L5.56,17.83,2,21.4A6.77,6.77,0,0,0,2,31Zm6.14-2L6.75,30.27,5.39,28.91l1.36-1.37ZM5.39,26.18,4,27.54,2.66,26.18,4,24.82Zm.17-2.89,1.36-1.37,1.36,1.37L6.92,24.65ZM8.28,26l1.37-1.36L11,26,9.65,27.38Z"/><path class="cls-1" d="M21.4,2,17.83,5.55l9.55,9.55L31,11.52A6.75,6.75,0,0,0,21.4,2Zm6,7.67L26,11,24.66,9.64,26,8.28ZM24.66,6.91,23.29,8.28,21.93,6.91l1.36-1.36Zm5.61-.16L28.91,8.11,27.54,6.75l1.37-1.36ZM27.54,4,26.18,5.39,24.82,4l1.36-1.36Z"/><path class="cls-1" d="M2,2a6.77,6.77,0,0,0,0,9.55L21.4,31A6.75,6.75,0,0,0,31,21.4L11.52,2A6.77,6.77,0,0,0,2,2ZM26.18,27.54l-1.36,1.37-1.37-1.37,1.37-1.36Zm-2.89-2.89L21.93,26l-1.37-1.36,1.37-1.36Zm-2.73-2.73L19.2,23.29l-1.37-1.37,1.37-1.36Zm-8.18-8.18L11,15.1,9.65,13.74,11,12.37ZM9.65,11,8.28,12.37,6.92,11,8.28,9.64Zm-2.9-2.9L5.39,9.48,4,8.11,5.39,6.75ZM28.91,24.82l-1.37,1.36-1.36-1.36,1.36-1.37ZM26,21.92l-1.36,1.37-1.37-1.37,1.37-1.36Zm-2.73-2.73-1.36,1.37-1.37-1.37,1.37-1.36ZM15.11,11l-1.37,1.36L12.38,11l1.36-1.37ZM12.38,8.28,11,9.64,9.65,8.28,11,6.91ZM9.48,5.39,8.11,6.75,6.75,5.39,8.11,4Z"/></g></g></svg>