<svg xmlns="http://www.w3.org/2000/svg" viewBox="0 0 27.6 47.4"><defs><style>.cls-1{fill:#4370b7;}</style></defs><title>platelets</title><g id="Слой_2" data-name="Слой 2"><g id="Layer_3" data-name="Layer 3"><path class="cls-1" d="M26.7,28.6,13.7,0,.9,28.5v.1a13.48,13.48,0,0,0-.9,5,13.8,13.8,0,1,0,27.6-.1A12.59,12.59,0,0,0,26.7,28.6ZM13.8,8.8l8,17.7H5.7Zm9.7,21a10.06,10.06,0,0,1,.6,3.6c0,.4,0,1.1-.1,1.1H3.5a10.42,10.42,0,0,1-.1-1.1A10.64,10.64,0,0,1,4,29.7l.2-.2H23.4ZM13.8,44.3a11,11,0,0,1-9.2-5.8H23.1C21.3,41.5,17.8,44.3,13.8,44.3Z"/></g></g></svg>