<svg xmlns="http://www.w3.org/2000/svg" viewBox="0 0 36.02 36.02"><defs><style>.cls-1{fill:#cb2f32;}</style></defs><title>syringe</title><g id="Слой_2" data-name="Слой 2"><g id="Layer_3" data-name="Layer 3"><path class="cls-1" d="M34.52,9,36,7.46,28.55,0,27.06,1.49l3,3-6,6,1.49,1.49,6-6Z"/><path class="cls-1" d="M25.57,11.94l-3,3,3,3,1.49-1.5,1.49,1.5,1.5-1.5-4.48-4.47Z"/><path class="cls-1" d="M19.6,6,18.11,7.46,19.6,9l-1.49,1.5,3,3,3-3L19.6,6Z"/><path class="cls-1" d="M6.17,22.38l7.46,7.46,2.24-2.23-3-3,1.49-1.49,3,3,3-3-3-3,1.5-1.49,3,3,2.24-2.24-7.46-7.46Z"/><path class="cls-1" d="M4.68,26.86l1.49,1.49L0,34.52,1.49,36l6.17-6.18,1.5,1.5,1.49-1.5L6.17,25.37Z"/></g></g></svg>